<svg width="1600" height="800" viewBox="0 0 1600 800" fill="none" xmlns="http://www.w3.org/2000/svg">
<path fill-rule="evenodd" clip-rule="evenodd" d="M-168.926 -125.154C-168.926 -77.7304 -207.361 -39.2859 -254.773 -39.2859L-254.773 132.451C-112.537 132.451 2.76755 17.1171 2.76755 -125.154L-168.926 -125.154Z" fill="#EDF1F9"/>
<path fill-rule="evenodd" clip-rule="evenodd" d="M181.042 -125.154C181.042 -77.7304 219.477 -39.2859 266.889 -39.2859V132.451C124.653 132.451 9.34842 17.1171 9.34842 -125.154L181.042 -125.154Z" fill="#EDF1F9"/>
<path fill-rule="evenodd" clip-rule="evenodd" d="M-254.773 754.418C-207.361 754.418 -168.926 715.973 -168.926 668.549L2.76758 668.549C2.76757 810.821 -112.537 926.154 -254.773 926.154L-254.773 754.418Z" fill="#EDF1F9"/>
<path fill-rule="evenodd" clip-rule="evenodd" d="M266.89 754.418C219.478 754.418 181.043 715.973 181.043 668.549L9.34863 668.549C9.34864 810.821 124.654 926.154 266.89 926.154L266.89 754.418Z" fill="#EDF1F9"/>
<path fill-rule="evenodd" clip-rule="evenodd" d="M8.91947 576.957C56.3315 576.957 94.7664 615.401 94.7664 662.825L266.46 662.825C266.46 520.554 151.155 405.22 8.91947 405.22L8.91947 576.957Z" fill="#EDF1F9"/>
<path fill-rule="evenodd" clip-rule="evenodd" d="M8.91946 226.902C56.3315 226.902 94.7664 188.457 94.7664 141.033L266.46 141.033C266.46 283.304 151.155 398.638 8.91946 398.638L8.91946 226.902Z" fill="#EDF1F9"/>
<path fill-rule="evenodd" clip-rule="evenodd" d="M-168.482 662.825C-168.482 615.401 -206.917 576.956 -254.329 576.956L-254.329 405.22C-112.093 405.22 3.21188 520.554 3.21187 662.825L-168.482 662.825Z" fill="#EDF1F9"/>
<path fill-rule="evenodd" clip-rule="evenodd" d="M-168.482 141.033C-168.482 188.457 -206.917 226.902 -254.329 226.902L-254.329 398.638C-112.093 398.638 3.21188 283.304 3.21188 141.033L-168.482 141.033Z" fill="#EDF1F9"/>
<path fill-rule="evenodd" clip-rule="evenodd" d="M361.509 -125.154C361.509 -77.7304 323.074 -39.2859 275.662 -39.2859V132.451C417.898 132.451 533.203 17.1171 533.203 -125.154L361.509 -125.154Z" fill="#EDF1F9"/>
<path fill-rule="evenodd" clip-rule="evenodd" d="M711.477 -125.154C711.477 -77.7304 749.912 -39.2859 797.324 -39.2859V132.451C655.088 132.451 539.783 17.1171 539.783 -125.154L711.477 -125.154Z" fill="#EDF1F9"/>
<path fill-rule="evenodd" clip-rule="evenodd" d="M275.661 754.418C323.073 754.418 361.508 715.973 361.508 668.549L533.202 668.549C533.202 810.821 417.897 926.154 275.661 926.154L275.661 754.418Z" fill="#EDF1F9"/>
<path fill-rule="evenodd" clip-rule="evenodd" d="M797.324 754.418C749.912 754.418 711.477 715.973 711.477 668.549L539.783 668.549C539.783 810.821 655.088 926.154 797.324 926.154L797.324 754.418Z" fill="#EDF1F9"/>
<path fill-rule="evenodd" clip-rule="evenodd" d="M888.522 -125.154C888.522 -77.7304 850.087 -39.2859 802.675 -39.2859V132.451C944.911 132.451 1060.22 17.1171 1060.22 -125.154L888.522 -125.154Z" fill="#EDF1F9"/>
<path fill-rule="evenodd" clip-rule="evenodd" d="M1238.49 -125.154C1238.49 -77.7304 1276.93 -39.2859 1324.34 -39.2859V132.451C1182.1 132.451 1066.8 17.1171 1066.8 -125.154L1238.49 -125.154Z" fill="#EDF1F9"/>
<path fill-rule="evenodd" clip-rule="evenodd" d="M802.675 754.418C850.087 754.418 888.522 715.973 888.522 668.549L1060.22 668.549C1060.22 810.821 944.911 926.154 802.675 926.154L802.675 754.418Z" fill="#EDF1F9"/>
<path fill-rule="evenodd" clip-rule="evenodd" d="M1324.34 754.418C1276.93 754.418 1238.49 715.973 1238.49 668.549L1066.8 668.549C1066.8 810.821 1182.1 926.154 1324.34 926.154L1324.34 754.418Z" fill="#EDF1F9"/>
<path fill-rule="evenodd" clip-rule="evenodd" d="M534.075 226.902C486.663 226.902 448.228 188.457 448.228 141.033L276.534 141.033C276.534 283.304 391.839 398.638 534.075 398.638L534.075 226.902Z" fill="#EDF1F9"/>
<path fill-rule="evenodd" clip-rule="evenodd" d="M534.075 576.957C486.663 576.957 448.228 615.401 448.228 662.825L276.534 662.825C276.534 520.554 391.839 405.22 534.075 405.22L534.075 576.957Z" fill="#EDF1F9"/>
<path fill-rule="evenodd" clip-rule="evenodd" d="M1066.37 576.957C1113.78 576.957 1152.22 615.401 1152.22 662.825L1323.91 662.825C1323.91 520.554 1208.6 405.22 1066.37 405.22L1066.37 576.957Z" fill="#EDF1F9"/>
<path fill-rule="evenodd" clip-rule="evenodd" d="M1066.37 226.902C1113.78 226.902 1152.22 188.457 1152.22 141.033L1323.91 141.033C1323.91 283.304 1208.6 398.638 1066.37 398.638L1066.37 226.902Z" fill="#EDF1F9"/>
<path fill-rule="evenodd" clip-rule="evenodd" d="M1418.96 -125.154C1418.96 -77.7304 1380.52 -39.2859 1333.11 -39.2859V132.451C1475.35 132.451 1590.65 17.1171 1590.65 -125.154L1418.96 -125.154Z" fill="#EDF1F9"/>
<path fill-rule="evenodd" clip-rule="evenodd" d="M1768.93 -125.154C1768.93 -77.7304 1807.36 -39.2859 1854.77 -39.2859V132.451C1712.54 132.451 1597.23 17.1171 1597.23 -125.154L1768.93 -125.154Z" fill="#EDF1F9"/>
<path fill-rule="evenodd" clip-rule="evenodd" d="M1333.11 754.418C1380.52 754.418 1418.96 715.973 1418.96 668.549L1590.65 668.549C1590.65 810.821 1475.35 926.154 1333.11 926.154L1333.11 754.418Z" fill="#EDF1F9"/>
<path fill-rule="evenodd" clip-rule="evenodd" d="M1854.77 754.418C1807.36 754.418 1768.93 715.973 1768.93 668.549L1597.23 668.549C1597.23 810.821 1712.54 926.154 1854.77 926.154L1854.77 754.418Z" fill="#EDF1F9"/>
<path fill-rule="evenodd" clip-rule="evenodd" d="M1591.52 226.902C1544.11 226.902 1505.68 188.457 1505.68 141.033L1333.98 141.033C1333.98 283.304 1449.29 398.638 1591.52 398.638L1591.52 226.902Z" fill="#EDF1F9"/>
<path fill-rule="evenodd" clip-rule="evenodd" d="M1591.52 576.957C1544.11 576.957 1505.68 615.401 1505.68 662.825L1333.98 662.825C1333.98 520.554 1449.29 405.22 1591.52 405.22L1591.52 576.957Z" fill="#EDF1F9"/>
<path fill-rule="evenodd" clip-rule="evenodd" d="M1768.93 141.033C1768.93 188.457 1807.36 226.902 1854.77 226.902L1854.77 398.638C1712.54 398.638 1597.23 283.304 1597.23 141.033L1768.93 141.033Z" fill="#EDF1F9"/>
<path fill-rule="evenodd" clip-rule="evenodd" d="M1768.93 662.825C1768.93 615.401 1807.36 576.957 1854.77 576.957L1854.77 405.22C1712.54 405.22 1597.23 520.554 1597.23 662.825L1768.93 662.825Z" fill="#EDF1F9"/>
</svg>
