<svg width="102" height="27" viewBox="0 0 102 27" fill="none" xmlns="http://www.w3.org/2000/svg">
<path fill-rule="evenodd" clip-rule="evenodd" d="M23.0531 12.7723C21.3253 14.4997 19.201 15.7053 16.7389 16.3557C16.7389 16.3557 15.6809 16.5676 14.5172 16.7096C15.2043 16.8078 15.7536 16.9178 15.7536 16.9178C17.5995 17.4056 19.1936 18.3099 20.4894 19.6056C21.3468 20.4634 21.9059 21.5195 22.0637 22.5794C22.2247 23.6574 21.9522 24.6118 21.298 25.2665C20.6431 25.9212 19.6883 26.1934 18.6105 26.033C17.5508 25.8751 16.4944 25.3159 15.6363 24.4581C14.3412 23.1624 13.4369 21.5689 12.9487 19.722L12.9471 19.7147C12.9058 19.5561 12.6811 19.5561 12.6398 19.7147L12.6374 19.7223C12.1501 21.5691 11.2457 23.1621 9.94979 24.4578C9.09248 25.3156 8.03612 25.8751 6.97646 26.033C5.89862 26.1939 4.94385 25.9215 4.28972 25.2667C3.63476 24.6118 3.3622 23.6576 3.52326 22.5794C3.68018 21.5193 4.24016 20.4634 5.09747 19.6056C6.39335 18.3099 7.98656 17.4056 9.83334 16.9181L9.84077 16.9162C9.84077 16.9162 10.3875 16.8071 11.0731 16.7094C9.91015 16.5681 8.85626 16.3578 8.85626 16.3578L8.84718 16.3553C6.38509 15.7054 4.26081 14.4997 2.5338 12.7723C1.38989 11.6288 0.644076 10.2211 0.434291 8.80784C0.21955 7.37034 0.582957 6.09831 1.45596 5.22516C2.32897 4.35228 3.60089 3.9891 5.03801 4.20359C6.45117 4.41404 7.85937 5.15996 9.00245 6.30353C10.7303 8.03093 11.9361 10.1547 12.5861 12.6169L12.5886 12.6269C12.644 12.8383 12.9429 12.8383 12.9983 12.6269L13.0008 12.6172C13.6508 10.155 14.8566 8.03062 16.5836 6.3032C17.7275 5.15965 19.1349 4.41404 20.5481 4.20359C21.986 3.98972 23.2579 4.35259 24.131 5.22546C25.004 6.09831 25.3665 7.37065 25.1526 8.80784C24.942 10.2208 24.1962 11.6288 23.0531 12.7723ZM12.6374 16.2778C12.6382 16.3507 12.5804 16.4082 12.5085 16.4069C12.264 16.4035 11.894 16.3848 11.4389 16.3218C10.0877 16.1349 7.98904 15.5539 6.23147 13.7961C4.78858 12.3536 4.46646 10.3285 5.51291 9.28185C6.55936 8.23519 8.58453 8.55829 10.0266 10.0008C11.785 11.7589 12.3656 13.8588 12.5523 15.2109M12.9826 15.6569C12.995 15.5197 13.0115 15.3703 13.0338 15.2106C13.2205 13.8587 13.8011 11.7595 15.5595 10.001C17.0024 8.55829 19.0276 8.23607 20.074 9.28242C21.1204 10.3288 20.7975 12.3536 19.3546 13.7964C17.5962 15.5548 15.4959 16.1359 14.1438 16.3221C13.6912 16.3848 13.322 16.4031 13.0776 16.4068M12.9826 15.6569C12.9603 15.9093 12.952 16.1203 12.9496 16.2799ZM12.6762 16.9763C12.677 16.9215 12.6341 16.8784 12.5795 16.8794C12.397 16.882 12.1187 16.8959 11.7776 16.9432C10.7642 17.0834 9.18994 17.5193 7.87176 18.8378C6.7898 19.9197 6.54697 21.4387 7.33243 22.2238C8.11706 23.0089 9.63594 22.7666 10.7179 21.6846C12.0369 20.3658 12.473 18.7907 12.6126 17.7765M12.9107 16.9747C12.9132 17.1588 12.9273 17.4364 12.9735 17.7767C13.1139 18.7907 13.5492 20.3654 14.8682 21.6844C15.951 22.7666 17.4699 23.0083 18.2545 22.2234C19.0391 21.4385 18.7971 19.9198 17.7152 18.8375C16.3961 17.5185 14.8211 17.0827 13.8069 16.943C13.4666 16.896 13.1899 16.8822 13.0065 16.8794" fill="#35393E"/>
<path d="M38.0734 10.1667C38.9567 10.1667 39.7108 10.3501 40.3359 10.717C40.9609 11.0703 41.4365 11.5595 41.7627 12.1845C42.1024 12.796 42.2722 13.4958 42.2722 14.2839C42.2722 14.4334 42.2654 14.5897 42.2518 14.7527C42.2382 14.9022 42.2111 15.0381 42.1703 15.1604H36.0963C36.1099 16.6279 36.3681 17.6878 36.8709 18.34C37.3872 18.9787 38.1482 19.298 39.1537 19.298C39.8331 19.298 40.3834 19.1893 40.8047 18.9719C41.2259 18.7545 41.62 18.4351 41.9869 18.0139L42.1907 18.1973C41.7695 18.9447 41.2055 19.529 40.4989 19.9502C39.8059 20.3715 38.9703 20.5821 37.9919 20.5821C37.0271 20.5821 36.1711 20.3783 35.4237 19.9706C34.6764 19.5494 34.0921 18.9515 33.6708 18.177C33.2496 17.4024 33.039 16.4784 33.039 15.405C33.039 14.2907 33.2836 13.3463 33.7727 12.5718C34.2619 11.7837 34.887 11.1858 35.6479 10.7781C36.4225 10.3705 37.231 10.1667 38.0734 10.1667ZM38.0123 10.5743C37.6182 10.5743 37.2785 10.6966 36.9932 10.9412C36.7214 11.1722 36.504 11.5934 36.3409 12.2049C36.1915 12.8028 36.1099 13.6521 36.0963 14.7527H39.5817C39.7176 13.2716 39.6633 12.2049 39.4187 11.5527C39.1741 10.9004 38.7053 10.5743 38.0123 10.5743ZM43.288 20.2764V20.0725L43.5733 19.991C44.0489 19.8551 44.2867 19.5222 44.2867 18.9923V12.6126C44.2867 12.3136 44.2392 12.0962 44.1441 11.9603C44.0489 11.8109 43.8655 11.7089 43.5937 11.6546L43.288 11.5731V11.3692L46.7734 10.1871L46.9772 10.3909L47.1403 11.6138C47.6159 11.1926 48.1526 10.8461 48.7505 10.5743C49.3484 10.3026 49.9395 10.1667 50.5238 10.1667C51.4206 10.1667 52.1068 10.4113 52.5824 10.9004C53.0716 11.3896 53.3161 12.137 53.3161 13.1425V19.0126C53.3161 19.5426 53.5743 19.8755 54.0907 20.0114L54.2741 20.0725V20.2764H49.4639V20.0725L49.7288 19.991C50.2044 19.8415 50.4422 19.5086 50.4422 18.9923V12.4903C50.4422 11.6206 50.0074 11.1858 49.1377 11.1858C48.5399 11.1858 47.8876 11.4847 47.181 12.0826V19.0126C47.181 19.5426 47.4188 19.8755 47.8944 20.0114L48.0779 20.0725V20.2764H43.288ZM60.1264 20.5821C59.2024 20.5821 58.3599 20.3851 57.599 19.991C56.8516 19.5833 56.2538 18.9991 55.8053 18.2381C55.3705 17.4636 55.1531 16.5192 55.1531 15.405C55.1531 14.3043 55.3909 13.3667 55.8665 12.5922C56.3557 11.8041 57.0011 11.2062 57.8028 10.7985C58.6181 10.3773 59.5082 10.1667 60.4729 10.1667C61.261 10.1667 61.9269 10.2958 62.4704 10.5539C63.0139 10.8121 63.4284 11.1518 63.7137 11.5731C63.9991 11.9807 64.1418 12.4087 64.1418 12.8572C64.1418 13.2376 64.0263 13.5366 63.7953 13.754C63.5643 13.9578 63.2653 14.0597 62.8984 14.0597C62.5044 14.0597 62.185 13.917 61.9405 13.6317C61.6959 13.3463 61.5532 12.9727 61.5124 12.5107C61.4988 12.2117 61.5056 11.9603 61.5328 11.7565C61.56 11.5391 61.56 11.3217 61.5328 11.1043C61.4785 10.8733 61.3901 10.7238 61.2678 10.6559C61.1591 10.5743 61.0029 10.5336 60.799 10.5336C59.9702 10.5336 59.3247 10.8936 58.8627 11.6138C58.4143 12.334 58.1901 13.4822 58.1901 15.0585C58.1901 16.4309 58.4415 17.484 58.9442 18.2177C59.4606 18.9379 60.2487 19.298 61.3086 19.298C61.9472 19.298 62.4636 19.1825 62.8577 18.9515C63.2517 18.7205 63.6322 18.374 63.9991 17.912L64.2029 18.0751C63.8632 18.8768 63.34 19.495 62.6335 19.9299C61.9269 20.3647 61.0912 20.5821 60.1264 20.5821ZM64.7666 20.2764V20.0725L65.0112 19.991C65.5004 19.8279 65.745 19.4882 65.745 18.9719V8.06728C65.745 7.79552 65.6906 7.59169 65.5819 7.45581C65.4732 7.30634 65.283 7.19763 65.0112 7.12969L64.7462 7.06855V6.86472L68.4762 5.98828L68.7208 6.17172L68.6393 9.02526V15.996C68.6393 16.4988 68.6393 17.0016 68.6393 17.5043C68.6528 17.9935 68.6596 18.4827 68.6596 18.9719C68.6596 19.2436 68.714 19.4678 68.8227 19.6445C68.9314 19.8076 69.1149 19.9299 69.373 20.0114L69.638 20.0725V20.2764H64.7666ZM73.3143 20.5821C72.5262 20.5821 71.8604 20.3579 71.3168 19.9095C70.7869 19.4611 70.5219 18.8156 70.5219 17.9731C70.5219 17.3345 70.848 16.7502 71.5003 16.2203C72.1525 15.6767 73.1784 15.2691 74.578 14.9973C74.7954 14.9565 75.04 14.9158 75.3118 14.875C75.5836 14.8207 75.8689 14.7663 76.1679 14.712V13.1017C76.1679 12.1777 76.0524 11.5323 75.8214 11.1654C75.6039 10.7849 75.2574 10.5947 74.7819 10.5947C74.4557 10.5947 74.1976 10.7034 74.0073 10.9208C73.8171 11.1246 73.6948 11.4847 73.6404 12.0011L73.5997 12.2253C73.5725 12.8096 73.4298 13.2376 73.1716 13.5094C72.9135 13.7812 72.5941 13.917 72.2137 13.917C71.8604 13.917 71.5682 13.8083 71.3372 13.5909C71.1062 13.3735 70.9907 13.0814 70.9907 12.7145C70.9907 12.1574 71.181 11.6886 71.5614 11.3081C71.9555 10.9276 72.4718 10.6423 73.1105 10.452C73.7491 10.2618 74.4421 10.1667 75.1895 10.1667C76.3989 10.1667 77.3297 10.4656 77.9819 11.0635C78.6477 11.6478 78.9806 12.6058 78.9806 13.9374V18.4419C78.9806 19.0534 79.266 19.3591 79.8367 19.3591H80.2851L80.4685 19.5222C80.2104 19.8483 79.925 20.0997 79.6125 20.2764C79.3135 20.453 78.8855 20.5413 78.3284 20.5413C77.7305 20.5413 77.2549 20.4054 76.9016 20.1337C76.5619 19.8483 76.3377 19.4746 76.229 19.0126C75.8214 19.4475 75.4001 19.8211 74.9653 20.1337C74.5441 20.4326 73.9937 20.5821 73.3143 20.5821ZM74.5576 19.3388C74.8294 19.3388 75.0808 19.2776 75.3118 19.1553C75.5564 19.0194 75.8417 18.8156 76.1679 18.5438V15.1196C76.032 15.1468 75.8961 15.174 75.7602 15.2011C75.6243 15.2283 75.4681 15.2555 75.2914 15.2827C74.6664 15.4457 74.1636 15.7243 73.7831 16.1183C73.4162 16.4988 73.2328 17.0152 73.2328 17.6674C73.2328 18.2245 73.3619 18.6458 73.6201 18.9311C73.8782 19.2029 74.1908 19.3388 74.5576 19.3388ZM85.0555 20.3375L81.4479 11.675C81.2576 11.213 80.9315 10.9072 80.4695 10.7578L80.1841 10.6762V10.4724H85.4632V10.6762L85.0963 10.7578C84.5664 10.8936 84.4033 11.2469 84.6071 11.8176L86.7473 17.5043L88.7448 11.8584C88.8535 11.5866 88.8806 11.3624 88.8263 11.1858C88.7719 11.0091 88.6089 10.8801 88.3371 10.7985L87.8276 10.6762V10.4724H90.783V10.6762L90.1919 10.8189C89.9337 10.8869 89.7299 10.9888 89.5804 11.1246C89.4446 11.2605 89.3291 11.4644 89.2339 11.7361L86.2377 20.3375H85.0555ZM95.8767 10.1667C96.7599 10.1667 97.5141 10.3501 98.1391 10.717C98.7642 11.0703 99.2398 11.5595 99.5659 12.1845C99.9056 12.796 100.075 13.4958 100.075 14.2839C100.075 14.4334 100.069 14.5897 100.055 14.7527C100.042 14.9022 100.014 15.0381 99.9736 15.1604H93.8996C93.9132 16.6279 94.1714 17.6878 94.6741 18.34C95.1905 18.9787 95.9514 19.298 96.957 19.298C97.6364 19.298 98.1867 19.1893 98.6079 18.9719C99.0292 18.7545 99.4232 18.4351 99.7901 18.0139L99.9939 18.1973C99.5727 18.9447 99.0088 19.529 98.3022 19.9502C97.6092 20.3715 96.7735 20.5821 95.7952 20.5821C94.8304 20.5821 93.9743 20.3783 93.227 19.9706C92.4796 19.5494 91.8953 18.9515 91.4741 18.177C91.0529 17.4024 90.8422 16.4784 90.8422 15.405C90.8422 14.2907 91.0868 13.3463 91.576 12.5718C92.0652 11.7837 92.6902 11.1858 93.4512 10.7781C94.2257 10.3705 95.0342 10.1667 95.8767 10.1667ZM95.8155 10.5743C95.4215 10.5743 95.0818 10.6966 94.7964 10.9412C94.5247 11.1722 94.3073 11.5934 94.1442 12.2049C93.9947 12.8028 93.9132 13.6521 93.8996 14.7527H97.385C97.5209 13.2716 97.4665 12.2049 97.2219 11.5527C96.9773 10.9004 96.5086 10.5743 95.8155 10.5743Z" fill="#35393E"/>
</svg>
